<?xml version="1.0" encoding="UTF-8"?>
<svg version="1.1" xmlns="http://www.w3.org/2000/svg" width="228" height="234">
<path d="M0 0 C1.76198937 -0.0064443 3.52397771 -0.01317381 5.28596497 -0.02017212 C8.96646602 -0.03208904 12.64687362 -0.03585881 16.32739258 -0.03466797 C20.9992128 -0.03446526 25.67042149 -0.0617429 30.34209728 -0.09621239 C33.9791173 -0.11866176 37.61599441 -0.12250002 41.25307655 -0.12144852 C42.97313858 -0.1237784 44.69320618 -0.13245072 46.41319847 -0.14811325 C66.34923933 -0.31265219 85.66740396 3.4775923 100.5234375 17.89453125 C111.63834393 29.97595128 118.0785141 43.98405645 118.06005859 60.46728516 C118.06677582 61.34329376 118.07349304 62.21930237 118.08041382 63.12185669 C118.09930161 65.99796333 118.10331381 68.87383531 118.10546875 71.75 C118.1119047 73.76769096 118.11863365 75.78538101 118.12564087 77.80307007 C118.13759182 82.02775228 118.1413241 86.25235287 118.14013672 90.47705078 C118.13993404 95.85647415 118.16719388 101.23536624 118.20168114 106.61466408 C118.22406478 110.78260641 118.22797071 114.9504234 118.22691727 119.11841965 C118.22925763 121.09970295 118.23799154 123.08099055 118.253582 125.0622139 C118.3974738 145.24206492 114.79852299 161.73158679 100.4140625 176.94921875 C88.61846425 187.59487685 74.84979941 193.46091476 58.97875977 193.51293945 C58.10318924 193.51951065 57.22761871 193.52608185 56.32551575 193.53285217 C53.43315533 193.55252895 50.54084686 193.56423887 47.6484375 193.57421875 C46.65550123 193.57829428 45.66256496 193.5823698 44.63953972 193.58656883 C39.37794073 193.60741147 34.11636763 193.62171774 28.85473633 193.63110352 C23.45171707 193.64212905 18.04911405 193.67648959 12.64624119 193.71627522 C8.46544189 193.74257909 4.28473941 193.75080779 0.10386467 193.75438499 C-1.88580175 193.75922001 -3.87546475 193.77074452 -5.86504936 193.78942299 C-26.09084671 193.96741518 -42.58700655 190.40189936 -57.84375 175.98046875 C-68.4894081 164.1848705 -74.35544601 150.41620566 -74.4074707 134.54516602 C-74.4173275 133.23181023 -74.4173275 133.23181023 -74.42738342 131.891922 C-74.4470602 128.99956158 -74.45877012 126.10725311 -74.46875 123.21484375 C-74.47282553 122.22190748 -74.47690105 121.22897121 -74.48110008 120.20594597 C-74.50194272 114.94434698 -74.51624899 109.68277388 -74.52563477 104.42114258 C-74.5366603 99.01812332 -74.57102084 93.6155203 -74.61080647 88.21264744 C-74.63711034 84.03184814 -74.64533904 79.85114566 -74.64891624 75.67027092 C-74.65375126 73.6806045 -74.66527577 71.6909415 -74.68395424 69.70135689 C-74.85850448 49.86667899 -71.62890294 33.54473607 -57.60668945 18.55004883 C-41.76619428 2.43374393 -21.38203512 0.01854344 0 0 Z " fill="#2A7EFE" transform="translate(89.23046875,23.6640625)"/>
<path d="M0 0 C2.08811194 1.16331999 2.08811194 1.16331999 5.82421875 0.875 C7.50918173 -0.09385372 9.17600631 -1.09486723 10.82421875 -2.125 C16.62472669 -3.89870904 22.50519158 -4.04192339 28.07421875 -1.5 C33.05926088 1.32452685 36.10722797 4.90327536 38.07421875 10.3125 C39.89718561 14.02353969 41.00645324 14.97593095 44.26171875 17.3125 C49.78344375 21.28993768 51.72352495 25.5729186 53.82421875 31.875 C53.7930522 34.10482486 53.72584918 36.33423923 53.63671875 38.5625 C53.57058159 44.9645771 54.47083849 48.48926807 57.82421875 53.875 C60.23747481 61.11476818 59.03049919 67.89632681 56.0390625 74.7734375 C54.82421875 76.875 54.82421875 76.875 52.19921875 78.875 C49.37617043 81.25230385 49.42195675 82.03209181 48.88671875 85.5625 C47.80218495 92.48919232 44.33630246 97.29502213 39.51171875 102.25 C32.85933201 106.27237338 25.57124986 108.16223535 17.82421875 106.875 C13.53991297 105.28664232 9.41380815 103.47205226 6.16015625 100.203125 C5.49886719 99.54570312 5.49886719 99.54570312 4.82421875 98.875 C2.80344529 98.81598078 2.80344529 98.81598078 0.82421875 99.875 C0.24671875 100.49375 -0.33078125 101.1125 -0.92578125 101.75 C-5.21143976 105.79756637 -10.23994321 107.0475404 -16.05078125 107.3125 C-23.44484473 107.02854979 -29.79315635 104.73996605 -35.05078125 99.4375 C-38.5754925 95.05009718 -39.71095011 90.28544582 -41.14453125 84.921875 C-42.39214099 81.23575531 -44.12496202 79.21527865 -46.78125 76.46484375 C-51.15760403 71.47555499 -51.7536829 65.05426297 -51.61328125 58.6484375 C-51.13642602 55.62551596 -50.2131399 53.7542327 -48.67578125 51.125 C-45.49808259 45.57509176 -46.01843136 40.71049969 -46.265625 34.4609375 C-46.14335664 29.5808353 -44.6822216 26.0039129 -42.17578125 21.875 C-41.51578125 21.875 -40.85578125 21.875 -40.17578125 21.875 C-39.86640625 21.00875 -39.86640625 21.00875 -39.55078125 20.125 C-38.17578125 17.875 -38.17578125 17.875 -35.36328125 16.25 C-32.04892052 13.78047632 -31.33968041 12.57223118 -29.67578125 8.9375 C-26.99106511 3.11346722 -24.26946448 0.31871884 -18.36328125 -2.4375 C-11.34511862 -3.95122135 -6.22127234 -3.7562399 0 0 Z " fill="#F4FAFD" transform="translate(107.17578125,69.125)"/>
<path d="M0 0 C2.75727926 1.87733171 4.45114868 4.0567642 6 7 C6.87810344 11.66455369 6.83853067 16.20356814 6.75 20.9375 C6.77320313 22.17435547 6.79640625 23.41121094 6.8203125 24.68554688 C6.77593894 31.60412516 6.19884151 36.22963345 1.65844727 41.58569336 C-0.11518095 43.09822512 -1.6328742 43.8279164 -3.8125 44.625 C-5.3903125 45.305625 -5.3903125 45.305625 -7 46 C-8.05749557 49.08369887 -8.05749557 49.08369887 -8 52 C-5.27488949 54.27962495 -5.27488949 54.27962495 -2.6875 53.75 C0.24529318 52.93154609 3.11459494 51.97108805 6 51 C6.11647041 55.54144994 6.18734502 60.08251394 6.25 64.625 C6.28351563 65.91019531 6.31703125 67.19539063 6.3515625 68.51953125 C6.44292617 77.33612521 5.86443614 81.02821842 -0.25 87.3125 C-5.05221715 90.25931507 -9.29482267 90.23121049 -14.6875 89.5 C-18.93426098 87.57693842 -20.80433695 85.0371869 -23 81 C-23 80.67 -23 80.34 -23 80 C-19.535 79.01 -19.535 79.01 -16 78 C-15.67 76.35 -15.34 74.7 -15 73 C-17.87700274 70.82676443 -17.87700274 70.82676443 -21.25 70.25 C-26.63150224 68.45616592 -30.48459593 65.50371107 -33.4375 60.625 C-34.5861826 55.26448122 -34.82675704 51.59227281 -32.3125 46.75 C-30.06739829 44.08014932 -27.82230104 42.03832853 -25 40 C-25.33 38.02 -25.66 36.04 -26 34 C-26.99 33.67 -27.98 33.34 -29 33 C-29.43112315 28.08519607 -29.49648044 25.11775347 -26.625 21 C-25.75875 20.01 -24.8925 19.02 -24 18 C-23.34 18 -22.68 18 -22 18 C-21.34 18.99 -20.68 19.98 -20 21 C-16.93443402 21.73343428 -16.93443402 21.73343428 -14 22 C-14 21.34 -14 20.68 -14 20 C-13.34 20 -12.68 20 -12 20 C-12.350625 19.030625 -12.70125 18.06125 -13.0625 17.0625 C-14.30307379 12.60730071 -14.45314882 8.42782994 -13 4 C-9.01231062 0.10725561 -5.48349637 -1.07711536 0 0 Z " fill="#297EFE" transform="translate(100,76)"/>
<path d="M0 0 C3.48490622 1.50186335 4.97030726 3.6037021 6.8671875 6.8046875 C7.2421875 10.6171875 7.2421875 10.6171875 6.8671875 13.8046875 C6.5371875 14.1346875 6.2071875 14.4646875 5.8671875 14.8046875 C5.82654918 16.47085865 5.8244665 18.13856845 5.8671875 19.8046875 C8.1771875 20.4646875 10.4871875 21.1246875 12.8671875 21.8046875 C12.8671875 21.1446875 12.8671875 20.4846875 12.8671875 19.8046875 C13.5271875 19.8046875 14.1871875 19.8046875 14.8671875 19.8046875 C15.1971875 19.1446875 15.5271875 18.4846875 15.8671875 17.8046875 C21.75489804 24.7491666 21.75489804 24.7491666 22.1796875 28.7421875 C22.0765625 29.7528125 21.9734375 30.7634375 21.8671875 31.8046875 C20.55381354 32.8307609 19.22054645 33.83196075 17.8671875 34.8046875 C17.03292965 37.21643043 17.03292965 37.21643043 17.8671875 39.8046875 C19.32773137 41.07049219 20.79592685 42.3309471 22.33203125 43.50390625 C25.37659229 46.08364881 26.58037974 49.06153369 27.21875 52.94140625 C27.547187 58.0321797 26.66445579 61.40488617 23.421875 65.37109375 C20.86696263 67.72700541 18.13089061 68.71678646 14.8671875 69.8046875 C13.165625 70.3925 13.165625 70.3925 11.4296875 70.9921875 C10.16125 71.394375 10.16125 71.394375 8.8671875 71.8046875 C8.5371875 73.4546875 8.2071875 75.1046875 7.8671875 76.8046875 C10.7848375 78.7497875 12.49256035 79.25745067 15.8671875 79.8046875 C14.13267719 84.48786534 10.27477993 87.60089129 5.8671875 89.8046875 C1.6899661 90.56733373 -1.75093968 90.65868021 -5.43359375 88.3828125 C-8.7959627 85.50605077 -11.47886571 82.95973539 -13.1328125 78.8046875 C-13.35986328 75.78027344 -13.35986328 75.78027344 -13.328125 72.2890625 C-13.32167969 71.03867188 -13.31523438 69.78828125 -13.30859375 68.5 C-13.29183594 67.19804687 -13.27507812 65.89609375 -13.2578125 64.5546875 C-13.24878906 63.23726562 -13.23976563 61.91984375 -13.23046875 60.5625 C-13.20689783 57.30971288 -13.17399272 54.05729161 -13.1328125 50.8046875 C-10.59069824 51.96740723 -10.59069824 51.96740723 -8.04858398 53.13012695 C-5.07403382 54.17749309 -2.24300642 53.99510754 0.8671875 53.8046875 C1.26935634 50.9572493 1.26935634 50.9572493 0.8671875 47.8046875 C-1.19075369 45.70942307 -1.19075369 45.70942307 -3.9453125 44.1796875 C-7.92670445 41.73225176 -11.21427913 39.69139141 -12.6887207 35.05761719 C-13.69956443 29.92948861 -13.53432355 24.63865865 -13.6328125 19.4296875 C-13.68695313 18.21023437 -13.74109375 16.99078125 -13.796875 15.734375 C-13.93030031 7.00454782 -13.93030031 7.00454782 -11.68408203 3.625 C-7.99093553 0.27280494 -4.98957395 -1.10663702 0 0 Z " fill="#297EFD" transform="translate(129.1328125,76.1953125)"/>
<path d="M0 0 C2.69632316 1.90772284 4.44453877 4.09408218 6 7 C6.71191776 11.17728215 6.57043003 15.2157102 6.375 19.4375 C6.33439453 21.1071582 6.33439453 21.1071582 6.29296875 22.81054688 C6.22262083 25.5423912 6.12424271 28.27016464 6 31 C5.67 31 5.34 31 5 31 C4.98541748 30.39526855 4.97083496 29.79053711 4.95581055 29.16748047 C4.88090812 26.40270735 4.78438927 23.63908643 4.6875 20.875 C4.65366211 19.44800781 4.65366211 19.44800781 4.61914062 17.9921875 C4.41542073 12.65843036 4.06564268 8.5684087 1 4 C-1.07690578 3.03955898 -1.07690578 3.03955898 -3 3 C-3.33 3.66 -3.66 4.32 -4 5 C-5.32 5 -6.64 5 -8 5 C-9.98009206 6.49901018 -9.98009206 6.49901018 -11 9 C-10.77131906 12.68815293 -10.77131906 12.68815293 -10 16 C-9.34 16 -8.68 16 -8 16 C-8 17.65 -8 19.3 -8 21 C-12.36200187 23.44697666 -16.02693484 24.50269348 -21 25 C-21.99 28.3 -22.98 31.6 -24 35 C-21.525 34.505 -21.525 34.505 -19 34 C-22.29513425 39.19747979 -25.52084996 43.77680139 -30 48 C-31.44207941 50.88415883 -31.09394887 53.41721528 -31.0625 56.625 C-31.04896484 58.40777344 -31.04896484 58.40777344 -31.03515625 60.2265625 C-31.02355469 61.14179688 -31.01195313 62.05703125 -31 63 C-33.84860129 60.15139871 -33.98456984 58.18824801 -34.3125 54.1875 C-34.24804334 49.79639006 -32.84937886 47.38845054 -30 44 C-27.25 41.625 -27.25 41.625 -25 40 C-25.33 38.02 -25.66 36.04 -26 34 C-26.99 33.67 -27.98 33.34 -29 33 C-29.43112315 28.08519607 -29.49648044 25.11775347 -26.625 21 C-25.75875 20.01 -24.8925 19.02 -24 18 C-23.34 18 -22.68 18 -22 18 C-21.34 18.99 -20.68 19.98 -20 21 C-16.93443402 21.73343428 -16.93443402 21.73343428 -14 22 C-14 21.34 -14 20.68 -14 20 C-13.34 20 -12.68 20 -12 20 C-12.350625 19.030625 -12.70125 18.06125 -13.0625 17.0625 C-14.30307379 12.60730071 -14.45314882 8.42782994 -13 4 C-9.01231062 0.10725561 -5.48349637 -1.07711536 0 0 Z " fill="#4182F4" transform="translate(100,76)"/>
<path d="M0 0 C7.35118734 7.35118734 6.52494472 21.57210953 6.55578613 31.25390625 C6.54862493 33.16927491 6.5404206 35.08463991 6.53125 37 C6.53395208 39.00911648 6.53784042 41.01823169 6.54284668 43.02734375 C6.54870806 47.21627382 6.54028804 51.40486023 6.52148438 55.59375 C6.49869707 60.92597827 6.51183833 66.2574008 6.53577423 71.58959961 C6.55032364 75.73183105 6.5455846 79.87387579 6.53526306 84.01611328 C6.53262096 85.98063252 6.5357754 87.94516947 6.54518127 89.90966797 C6.64601116 116.87810703 6.64601116 116.87810703 -1 126 C-1 124.35 -1 122.7 -1 121 C-0.34 121 0.32 121 1 121 C0.87431641 120.06027344 0.87431641 120.06027344 0.74609375 119.1015625 C0.64425781 118.28429687 0.54242188 117.46703125 0.4375 116.625 C0.33308594 115.81289062 0.22867188 115.00078125 0.12109375 114.1640625 C0 112 0 112 1 110 C1.66 110 2.32 110 3 110 C3.33 77.66 3.66 45.32 4 12 C3.34 12 2.68 12 2 12 C1.67 12.66 1.34 13.32 1 14 C0.01 14.495 0.01 14.495 -1 15 C-0.51421457 11.87709365 -0.0013988 9.00419641 1 6 C0.72428861 3.99124558 0.39764263 1.98821313 0 0 Z " fill="#407CE5" transform="translate(201,59)"/>
<path d="M0 0 C1.04150762 2.70791981 1.05164322 3.85144609 0.08242798 6.63943481 C-1.34725291 11.07810041 -1.30777503 15.13456823 -1.31884766 19.76904297 C-1.32889328 20.73552261 -1.3389389 21.70200226 -1.34928894 22.69776917 C-1.3800783 25.87923612 -1.39714441 29.06061908 -1.4140625 32.2421875 C-1.43277754 34.45322388 -1.45235121 36.66425315 -1.4727478 38.87527466 C-1.52403933 44.68501588 -1.56368112 50.49478026 -1.60089111 56.30462646 C-1.64094934 62.23699659 -1.69203342 68.16927066 -1.7421875 74.1015625 C-1.83891157 85.7343075 -1.92332773 97.36710677 -2 109 C-1.01 109.33 -0.02 109.66 1 110 C3.8741103 115.13233982 4.32152306 118.11321548 3 124 C-5.84829965 113.44374515 -4.59308435 97.91464255 -4.53125 85 C-4.53395208 82.99088352 -4.53784042 80.98176831 -4.54284668 78.97265625 C-4.54870806 74.78372618 -4.54028804 70.59513977 -4.52148438 66.40625 C-4.49869707 61.07402173 -4.51183833 55.7425992 -4.53577423 50.41040039 C-4.55032364 46.26816895 -4.5455846 42.12612421 -4.53526306 37.98388672 C-4.53262096 36.01936748 -4.5357754 34.05483053 -4.54518127 32.09033203 C-4.58776652 20.70027991 -3.96534627 10.76267897 0 0 Z " fill="#3F7CE5" transform="translate(19,61)"/>
<path d="M0 0 C3.48490622 1.50186335 4.97030726 3.6037021 6.8671875 6.8046875 C7.2421875 10.6171875 7.2421875 10.6171875 6.8671875 13.8046875 C6.5371875 14.1346875 6.2071875 14.4646875 5.8671875 14.8046875 C5.82654918 16.47085865 5.8244665 18.13856845 5.8671875 19.8046875 C8.1771875 20.4646875 10.4871875 21.1246875 12.8671875 21.8046875 C12.8671875 21.1446875 12.8671875 20.4846875 12.8671875 19.8046875 C13.5271875 19.8046875 14.1871875 19.8046875 14.8671875 19.8046875 C15.1971875 19.1446875 15.5271875 18.4846875 15.8671875 17.8046875 C16.5271875 18.7946875 17.1871875 19.7846875 17.8671875 20.8046875 C16.8771875 20.8046875 15.8871875 20.8046875 14.8671875 20.8046875 C14.8671875 21.4646875 14.8671875 22.1246875 14.8671875 22.8046875 C12.2271875 23.4646875 9.5871875 24.1246875 6.8671875 24.8046875 C6.8671875 25.7946875 6.8671875 26.7846875 6.8671875 27.8046875 C5.2171875 27.8046875 3.5671875 27.8046875 1.8671875 27.8046875 C2.1971875 25.4946875 2.5271875 23.1846875 2.8671875 20.8046875 C2.2071875 21.1346875 1.5471875 21.4646875 0.8671875 21.8046875 C0.2071875 21.1446875 -0.4528125 20.4846875 -1.1328125 19.8046875 C-0.1428125 16.8346875 0.8471875 13.8646875 1.8671875 10.8046875 C2.5271875 10.8046875 3.1871875 10.8046875 3.8671875 10.8046875 C3.8671875 9.8146875 3.8671875 8.8246875 3.8671875 7.8046875 C3.2071875 7.4746875 2.5471875 7.1446875 1.8671875 6.8046875 C1.53385417 5.47135417 1.20052083 4.13802083 0.8671875 2.8046875 C0.2071875 2.4746875 -0.4528125 2.1446875 -1.1328125 1.8046875 C-1.4628125 2.4646875 -1.7928125 3.1246875 -2.1328125 3.8046875 C-2.1328125 3.1446875 -2.1328125 2.4846875 -2.1328125 1.8046875 C-6.95723434 3.07415264 -6.95723434 3.07415264 -10.1328125 6.8046875 C-9.8028125 7.7946875 -9.4728125 8.7846875 -9.1328125 9.8046875 C-9.7928125 10.4646875 -10.4528125 11.1246875 -11.1328125 11.8046875 C-11.41108502 14.4262517 -11.41108502 14.4262517 -11.328125 17.46875 C-11.32167969 18.59023437 -11.31523438 19.71171875 -11.30859375 20.8671875 C-11.29183594 22.0428125 -11.27507812 23.2184375 -11.2578125 24.4296875 C-11.24878906 25.61304687 -11.23976563 26.79640625 -11.23046875 28.015625 C-11.20684062 30.94551273 -11.17389764 33.8750009 -11.1328125 36.8046875 C-14.3242339 31.48912396 -13.62261487 25.44778713 -13.6953125 19.4296875 C-13.74494141 18.21023437 -13.79457031 16.99078125 -13.84570312 15.734375 C-13.94555147 7.02379595 -13.94555147 7.02379595 -11.6796875 3.625 C-7.98731052 0.27260634 -4.98949201 -1.10661885 0 0 Z " fill="#377FF7" transform="translate(129.1328125,76.1953125)"/>
<path d="M0 0 C1.98 0 3.96 0 6 0 C8.56 7.68 8.56 7.68 7 12 C5.5 13.625 5.5 13.625 4 15 C3.67 15.99 3.34 16.98 3 18 C1.02 18 -0.96 18 -3 18 C-3 16.02 -3 14.04 -3 12 C-4.65 12 -6.3 12 -8 12 C-7.67 20.25 -7.34 28.5 -7 37 C-9 35 -9 35 -9.22705078 32.20263672 C-9.21134033 30.45877686 -9.21134033 30.45877686 -9.1953125 28.6796875 C-9.18886719 27.42285156 -9.18242188 26.16601562 -9.17578125 24.87109375 C-9.15902344 23.55238281 -9.14226562 22.23367187 -9.125 20.875 C-9.11496983 19.53516279 -9.10584404 18.19531848 -9.09765625 16.85546875 C-9.07402075 13.57013427 -9.04107234 10.28515535 -9 7 C-6.45788574 8.16271973 -6.45788574 8.16271973 -3.91577148 9.32543945 C-0.94122132 10.37280559 1.88980608 10.19042004 5 10 C5.41809201 7.16848027 5.41809201 7.16848027 5 4 C2.62157423 1.59593616 2.62157423 1.59593616 0 0 Z " fill="#4280F1" transform="translate(125,120)"/>
<path d="M0 0 C3.28459421 3.06562126 5.5793413 5.6044594 6.37109375 10.11328125 C6.52593458 15.24124508 5.84087026 18.55342444 2.55078125 22.56640625 C-1.64405881 26.44425588 -7.60812335 27.56950211 -13 29 C-13 28.01 -13 27.02 -13 26 C-11.02 26 -9.04 26 -7 26 C-7 25.01 -7 24.02 -7 23 C-5.35 23.33 -3.7 23.66 -2 24 C-2 22.68 -2 21.36 -2 20 C-2.66 19.67 -3.32 19.34 -4 19 C-0.86650268 17.95550089 -0.01031744 18.06576355 3 19 C3 17.68 3 16.36 3 15 C2.01 15 1.02 15 0 15 C0 13.02 0 11.04 0 9 C0.99 9 1.98 9 3 9 C3 9.99 3 10.98 3 12 C3.66 12 4.32 12 5 12 C3.88145414 8.27385847 3.88145414 8.27385847 1 6 C0.375 2.9375 0.375 2.9375 0 0 Z " fill="#3C80F6" transform="translate(150,119)"/>
<path d="M0 0 C3.48490622 1.50186335 4.97030726 3.6037021 6.8671875 6.8046875 C7.1796875 10.6796875 7.1796875 10.6796875 6.8671875 13.8046875 C6.5371875 13.8046875 6.2071875 13.8046875 5.8671875 13.8046875 C5.5784375 12.8353125 5.2896875 11.8659375 4.9921875 10.8671875 C4.22504068 7.69804547 4.22504068 7.69804547 1.8671875 6.8046875 C1.53385417 5.47135417 1.20052083 4.13802083 0.8671875 2.8046875 C0.2071875 2.4746875 -0.4528125 2.1446875 -1.1328125 1.8046875 C-1.4628125 2.4646875 -1.7928125 3.1246875 -2.1328125 3.8046875 C-2.1328125 3.1446875 -2.1328125 2.4846875 -2.1328125 1.8046875 C-6.95723434 3.07415264 -6.95723434 3.07415264 -10.1328125 6.8046875 C-9.8028125 7.7946875 -9.4728125 8.7846875 -9.1328125 9.8046875 C-9.7928125 10.4646875 -10.4528125 11.1246875 -11.1328125 11.8046875 C-11.41108502 14.4262517 -11.41108502 14.4262517 -11.328125 17.46875 C-11.32167969 18.59023437 -11.31523438 19.71171875 -11.30859375 20.8671875 C-11.29183594 22.0428125 -11.27507812 23.2184375 -11.2578125 24.4296875 C-11.24878906 25.61304687 -11.23976563 26.79640625 -11.23046875 28.015625 C-11.20684062 30.94551273 -11.17389764 33.8750009 -11.1328125 36.8046875 C-14.3242339 31.48912396 -13.62261487 25.44778713 -13.6953125 19.4296875 C-13.74494141 18.21023437 -13.79457031 16.99078125 -13.84570312 15.734375 C-13.94555147 7.02379595 -13.94555147 7.02379595 -11.6796875 3.625 C-7.98731052 0.27260634 -4.98949201 -1.10661885 0 0 Z " fill="#4582EA" transform="translate(129.1328125,76.1953125)"/>
<path d="M0 0 C2.31 0.33 4.62 0.66 7 1 C6.25749403 5.08378283 5.17076699 9.01939223 4 13 C5.32 12.01 6.64 11.02 8 10 C9 13 9 13 9 16 C3.96014269 15.55530671 1.62365012 13.28656638 -2 10 C-1.01 9.67 -0.02 9.34 1 9 C0.649375 8.2575 0.29875 7.515 -0.0625 6.75 C-1.04509293 3.8677274 -1.0326802 2.78823655 0 0 Z " fill="#307DFE" transform="translate(71,130)"/>
<path d="M0 0 C0.268125 0.61875 0.53625 1.2375 0.8125 1.875 C1.95556848 4.2995233 1.95556848 4.2995233 5 6 C6.65549531 6.38499891 8.3222433 6.72793135 10 7 C8.26548969 11.68317784 4.40759243 14.79620379 0 17 C-1.54023996 17.06950541 -3.08334988 17.08452357 -4.625 17.0625 C-5.85089844 17.04896484 -5.85089844 17.04896484 -7.1015625 17.03515625 C-7.72804688 17.02355469 -8.35453125 17.01195312 -9 17 C-5.96474514 14.97649676 -4.80573798 14.67875982 -1.3125 14.375 C-0.50425781 14.30023438 0.30398437 14.22546875 1.13671875 14.1484375 C2.05904297 14.07496094 2.05904297 14.07496094 3 14 C2.69181644 12.68647977 2.37832335 11.37420428 2.0625 10.0625 C1.88847656 9.33160156 1.71445313 8.60070312 1.53515625 7.84765625 C1.16112431 6.00030102 1.16112431 6.00030102 0 5 C-0.04063832 3.33382885 -0.042721 1.66611905 0 0 Z " fill="#4985F0" transform="translate(135,149)"/>
<path d="M0 0 C1.0828125 1.0209375 1.0828125 1.0209375 2.1875 2.0625 C4.76652508 4.25992263 4.76652508 4.25992263 7.4375 3.875 C8.283125 3.58625 9.12875 3.2975 10 3 C11.99975267 2.33259181 13.99972503 1.66584119 16 1 C16.08704 5.58321382 16.14040632 10.16621534 16.1875 14.75 C16.21263672 16.05195313 16.23777344 17.35390625 16.26367188 18.6953125 C16.27333984 19.94570312 16.28300781 21.19609375 16.29296875 22.484375 C16.3086792 23.63647461 16.32438965 24.78857422 16.34057617 25.97558594 C15.9698672 29.26758786 15.22615202 30.60695077 13 33 C13 31.35 13 29.7 13 28 C13.66 28 14.32 28 15 28 C15 20.08 15 12.16 15 4 C9.555 5.485 9.555 5.485 4 7 C2.68 5.68 1.36 4.36 0 3 C0 2.01 0 1.02 0 0 Z " fill="#4881E1" transform="translate(90,126)"/>
<path d="M0 0 C0.66 0.33 1.32 0.66 2 1 C1.37240135 3.92879371 0.41377341 6.36095629 -1 9 C-0.34 9 0.32 9 1 9 C0.67 10.32 0.34 11.64 0 13 C-3.33333333 9.66666667 -6.66666667 6.33333333 -10 3 C-9.04287109 2.80083984 -9.04287109 2.80083984 -8.06640625 2.59765625 C-7.24011719 2.42105469 -6.41382813 2.24445313 -5.5625 2.0625 C-4.73878906 1.88847656 -3.91507813 1.71445313 -3.06640625 1.53515625 C-1.02338796 1.19247006 -1.02338796 1.19247006 0 0 Z " fill="#3883F8" transform="translate(157,80)"/>
<path d="M0 0 C6.25044765 4.71972578 10.28907298 10.09699897 14 17 C14 17.66 14 18.32 14 19 C12.35 18.67 10.7 18.34 9 18 C8.7525 16.741875 8.505 15.48375 8.25 14.1875 C7.51614484 11.1723125 7.26584812 10.23457187 4.875 8.125 C4.25625 7.75375 3.6375 7.3825 3 7 C3 6.34 3 5.68 3 5 C2.34 5 1.68 5 1 5 C0.67 3.35 0.34 1.7 0 0 Z " fill="#3D7BE4" transform="translate(187,40)"/>
<path d="M0 0 C3.75 0.4375 3.75 0.4375 6.46484375 2.69140625 C10.1379842 7.41751363 9.28036485 13.12119967 9.0625 18.8125 C9.02866211 20.48892578 9.02866211 20.48892578 8.99414062 22.19921875 C8.93543378 24.9466989 8.85336846 27.69139761 8.75 30.4375 C8.42 30.4375 8.09 30.4375 7.75 30.4375 C7.73541748 29.83276855 7.72083496 29.22803711 7.70581055 28.60498047 C7.63090812 25.84020735 7.53438927 23.07658643 7.4375 20.3125 C7.41494141 19.36117187 7.39238281 18.40984375 7.36914062 17.4296875 C7.16542073 12.09593036 6.81564268 8.0059087 3.75 3.4375 C1.67309422 2.47705898 1.67309422 2.47705898 -0.25 2.4375 C-0.58 3.0975 -0.91 3.7575 -1.25 4.4375 C-2.24 3.4475 -3.23 2.4575 -4.25 1.4375 C-3.25 0.4375 -3.25 0.4375 0 0 Z " fill="#417EEB" transform="translate(97.25,76.5625)"/>
<path d="M0 0 C0.66 0.33 1.32 0.66 2 1 C0.88266271 2.50571657 -0.24410035 4.00444292 -1.375 5.5 C-2.00148438 6.3353125 -2.62796875 7.170625 -3.2734375 8.03125 C-3.84320313 8.6809375 -4.41296875 9.330625 -5 10 C-5.66 10 -6.32 10 -7 10 C-7 10.99 -7 11.98 -7 13 C-6.34 13.66 -5.68 14.32 -5 15 C-5.99 16.485 -5.99 16.485 -7 18 C-7.928125 17.4740625 -7.928125 17.4740625 -8.875 16.9375 C-9.57625 16.628125 -10.2775 16.31875 -11 16 C-11.66 16.33 -12.32 16.66 -13 17 C-11.51299286 12.17170572 -8.78716744 9.2512231 -5.375 5.6875 C-4.6015625 4.86282227 -4.6015625 4.86282227 -3.8125 4.02148438 C-2.54799382 2.67501946 -1.27485078 1.33667465 0 0 Z " fill="#3B7AE0" transform="translate(36,38)"/>
<path d="M0 0 C2.91615833 1.21915022 5.56772237 2.89849443 8.25 4.5625 C8.95640625 4.99691406 9.6628125 5.43132812 10.390625 5.87890625 C10.92171875 6.24886719 11.4528125 6.61882812 12 7 C12 7.33 12 7.66 12 8 C8.33333333 8 4.66666667 8 1 8 C1 7.34 1 6.68 1 6 C0.34 5.67 -0.32 5.34 -1 5 C-0.01 4.34 0.98 3.68 2 3 C1.01 2.67 0.02 2.34 -1 2 C-1.33 2.99 -1.66 3.98 -2 5 C-4.0625 5.6875 -4.0625 5.6875 -6 6 C-5.67 5.34 -5.34 4.68 -5 4 C-4.34 4 -3.68 4 -3 4 C-2.67 3.01 -2.34 2.02 -2 1 C-1.34 0.67 -0.68 0.34 0 0 Z " fill="#3C81F0" transform="translate(110,167)"/>
<path d="M0 0 C0.33 0 0.66 0 1 0 C2.7610915 14.8735663 2.7610915 14.8735663 0.0625 19.4375 C-0.618125 20.283125 -1.29875 21.12875 -2 22 C-2.66 20.68 -3.32 19.36 -4 18 C-3.34 17.67 -2.68 17.34 -2 17 C-0.95915798 13.87747393 -0.92977749 11.76534692 -1 8.5 C-1.07022251 5.23465308 -1.04084202 3.12252607 0 0 Z " fill="#3F7EEB" transform="translate(60,100)"/>
<path d="M0 0 C1.6852084 4.07679159 0.16939007 6.83075593 -1.4375 10.75 C-1.91058594 11.92046875 -2.38367188 13.0909375 -2.87109375 14.296875 C-3.24363281 15.18890625 -3.61617187 16.0809375 -4 17 C-4.33 17 -4.66 17 -5 17 C-5 15.35 -5 13.7 -5 12 C-4.34 12 -3.68 12 -3 12 C-3.08378906 11.37351563 -3.16757813 10.74703125 -3.25390625 10.1015625 C-3.35574219 9.28429687 -3.45757812 8.46703125 -3.5625 7.625 C-3.66691406 6.81289062 -3.77132812 6.00078125 -3.87890625 5.1640625 C-4 3 -4 3 -3 1 C-2.01 0.67 -1.02 0.34 0 0 Z " fill="#3E79E6" transform="translate(205,168)"/>
<path d="M0 0 C0.99 0 1.98 0 3 0 C2.979375 0.9075 2.95875 1.815 2.9375 2.75 C2.9889755 5.42672588 3.2215017 7.46988052 4 10 C2.35 10.33 0.7 10.66 -1 11 C-1.02688151 9.35425434 -1.04634123 7.70838587 -1.0625 6.0625 C-1.07410156 5.14597656 -1.08570313 4.22945312 -1.09765625 3.28515625 C-1 1 -1 1 0 0 Z " fill="#1C81FD" transform="translate(131,147)"/>
<path d="M0 0 C4.29 0 8.58 0 13 0 C13 0.33 13 0.66 13 1 C12.20335938 1.17015625 11.40671875 1.3403125 10.5859375 1.515625 C4.58396615 2.88833864 -0.17757342 4.11526747 -5 8 C-4.67 6.02 -4.34 4.04 -4 2 C-3.01 2 -2.02 2 -1 2 C-0.67 1.34 -0.34 0.68 0 0 Z " fill="#4280EF" transform="translate(85,65)"/>
<path d="M0 0 C0.66 0.33 1.32 0.66 2 1 C1.67 2.98 1.34 4.96 1 7 C3.97 7.495 3.97 7.495 7 8 C6.67 8.99 6.34 9.98 6 11 C-0.75 9.25 -0.75 9.25 -3 7 C-2.67028521 3.70285207 -2.3773161 2.3773161 0 0 Z " fill="#E1F4FE" transform="translate(139,146)"/>
<path d="M0 0 C0.66 0.99 1.32 1.98 2 3 C-2.67460782 7.55774263 -5.48277089 8.66290194 -12 9 C-11.34 8.67 -10.68 8.34 -10 8 C-10 7.01 -10 6.02 -10 5 C-7.03 5.495 -7.03 5.495 -4 6 C-4 5.34 -4 4.68 -4 4 C-3.01 4 -2.02 4 -1 4 C-0.67 2.68 -0.34 1.36 0 0 Z " fill="#4280F0" transform="translate(101,157)"/>
<path d="M0 0 C0 1.98 0 3.96 0 6 C-2.64 5.67 -5.28 5.34 -8 5 C-8 4.01 -8 3.02 -8 2 C-2.25 0 -2.25 0 0 0 Z " fill="#2580FD" transform="translate(105,130)"/>
<path d="M0 0 C2 2 2 2 2.1953125 4.6015625 C2.17210937 5.59929687 2.14890625 6.59703125 2.125 7.625 C2.10695312 8.62789062 2.08890625 9.63078125 2.0703125 10.6640625 C2.03550781 11.82035156 2.03550781 11.82035156 2 13 C2.66 13 3.32 13 4 13 C3.625 15.4375 3.625 15.4375 3 18 C2.34 18.33 1.68 18.66 1 19 C-0.65497356 15.69005287 -0.10084335 12.00877 -0.0625 8.375 C-0.05798828 7.57320313 -0.05347656 6.77140625 -0.04882812 5.9453125 C-0.03703168 3.96350994 -0.01909605 1.98174567 0 0 Z " fill="#4286ED" transform="translate(160,98)"/>
<path d="M0 0 C0.66 0 1.32 0 2 0 C2 0.66 2 1.32 2 2 C2.99 2 3.98 2 5 2 C5 2.66 5 3.32 5 4 C6.32 3.67 7.64 3.34 9 3 C10.24546405 5.49092811 9.7767578 6.41080733 9 9 C4.71930097 7.41455592 2.70478088 4.5312417 0 1 C0 0.67 0 0.34 0 0 Z " fill="#3E7CEF" transform="translate(28,194)"/>
<path d="M0 0 C1.32 0.66 2.64 1.32 4 2 C3.67 3.98 3.34 5.96 3 8 C-0.3125 8.6875 -0.3125 8.6875 -4 9 C-5.9375 7.5625 -5.9375 7.5625 -7 6 C-4.36 6 -1.72 6 1 6 C0.67 4.02 0.34 2.04 0 0 Z " fill="#D7EFFF" transform="translate(127,122)"/>
<path d="M0 0 C1.98 0 3.96 0 6 0 C5.67 0.66 5.34 1.32 5 2 C5.33 2.99 5.66 3.98 6 5 C6.99 5.33 7.98 5.66 9 6 C9 6.66 9 7.32 9 8 C9.99 8.33 10.98 8.66 12 9 C5.87338476 8.87987029 5.87338476 8.87987029 3.421875 6.41015625 C0 1.6018319 0 1.6018319 0 0 Z " fill="#4381E7" transform="translate(77,156)"/>
<path d="M0 0 C1.0828125 1.0209375 1.0828125 1.0209375 2.1875 2.0625 C4.77647454 4.27961236 4.77647454 4.27961236 7.5 3.8125 C8.325 3.544375 9.15 3.27625 10 3 C10.928125 2.814375 11.85625 2.62875 12.8125 2.4375 C13.534375 2.293125 14.25625 2.14875 15 2 C15 2.66 15 3.32 15 4 C9.555 5.485 9.555 5.485 4 7 C2.68 5.68 1.36 4.36 0 3 C0 2.01 0 1.02 0 0 Z " fill="#5085EC" transform="translate(90,126)"/>
<path d="M0 0 C0.66 0.99 1.32 1.98 2 3 C1.34 4.32 0.68 5.64 0 7 C-3 7 -3 7 -5.1875 5 C-5.785625 4.34 -6.38375 3.68 -7 3 C-5.35 3 -3.7 3 -2 3 C-2 2.34 -2 1.68 -2 1 C-1.34 0.67 -0.68 0.34 0 0 Z " fill="#377EF5" transform="translate(44,200)"/>
<path d="M0 0 C2.64 0 5.28 0 8 0 C6 2 6 2 3 3 C1.79117904 5.00016466 1.79117904 5.00016466 1 7 C0.01 6.67 -0.98 6.34 -2 6 C-1.34 4.02 -0.68 2.04 0 0 Z " fill="#3C7DF3" transform="translate(90,119)"/>
<path d="M0 0 C0.33 0.99 0.66 1.98 1 3 C0.01 4.485 0.01 4.485 -1 6 C-0.34 6.33 0.32 6.66 1 7 C0.34 8.32 -0.32 9.64 -1 11 C-1.66 10.67 -2.32 10.34 -3 10 C-3 9.34 -3 8.68 -3 8 C-3.66 7.67 -4.32 7.34 -5 7 C-3.35 4.69 -1.7 2.38 0 0 Z " fill="#357FF7" transform="translate(152,164)"/>
<path d="M0 0 C1.66611905 -0.042721 3.33382885 -0.04063832 5 0 C6 1 6 1 6.09765625 3.06640625 C6.08605469 3.89011719 6.07445313 4.71382812 6.0625 5.5625 C6.05347656 6.38878906 6.04445313 7.21507812 6.03515625 8.06640625 C6.01775391 9.02353516 6.01775391 9.02353516 6 10 C4.35 10 2.7 10 1 10 C1.66 9.01 2.32 8.02 3 7 C2.6758631 3.67759676 2.39223697 2.39223697 0 0 Z " fill="#4985F3" transform="translate(82,146)"/>
<path d="M0 0 C-0.63808594 0.33773437 -1.27617188 0.67546875 -1.93359375 1.0234375 C-2.75988281 1.46945313 -3.58617188 1.91546875 -4.4375 2.375 C-5.26121094 2.81585938 -6.08492188 3.25671875 -6.93359375 3.7109375 C-9.13466578 4.83418559 -9.13466578 4.83418559 -10 7 C-11.32 6.67 -12.64 6.34 -14 6 C-4.74576271 -2.37288136 -4.74576271 -2.37288136 0 0 Z " fill="#DBEEFE" transform="translate(94,67)"/>
<path d="M0 0 C2.4178712 -0.10826289 4.83087556 -0.18739789 7.25 -0.25 C8.27287109 -0.30027344 8.27287109 -0.30027344 9.31640625 -0.3515625 C12.92181813 -0.4215705 14.64068812 -0.29151719 17.484375 2.015625 C17.98453125 2.67046875 18.4846875 3.3253125 19 4 C18.113125 3.67 17.22625 3.34 16.3125 3 C10.68690677 1.34951604 4.80154186 1.84296578 -1 2 C-0.67 1.34 -0.34 0.68 0 0 Z " fill="#4783E9" transform="translate(119,65)"/>
<path d="M0 0 C0.99 0 1.98 0 3 0 C1.50902342 3.7952131 -0.75700849 5.61042731 -4 8 C-4.33 6.02 -4.66 4.04 -5 2 C-3.35 2 -1.7 2 0 2 C0 1.34 0 0.68 0 0 Z " fill="#3C7CEE" transform="translate(190,195)"/>
<path d="M0 0 C0.99 0 1.98 0 3 0 C2.55090939 1.48199902 2.09043436 2.96055236 1.625 4.4375 C1.36976562 5.26121094 1.11453125 6.08492188 0.8515625 6.93359375 C0 9 0 9 -2 10 C-2 8.68 -2 7.36 -2 6 C-2.66 5.67 -3.32 5.34 -4 5 C-3.01 4.34 -2.02 3.68 -1 3 C-0.67 2.01 -0.34 1.02 0 0 Z " fill="#3D7DF1" transform="translate(76,74)"/>
<path d="M0 0 C-0.680625 0.7425 -1.36125 1.485 -2.0625 2.25 C-4.28353676 4.75949064 -4.28353676 4.75949064 -3.75 7.3125 C-3.5025 7.869375 -3.255 8.42625 -3 9 C-4.32 8.34 -5.64 7.68 -7 7 C-6.75 4.125 -6.75 4.125 -6 1 C-2.77922078 -1.38961039 -2.77922078 -1.38961039 0 0 Z " fill="#D4F1FE" transform="translate(98,121)"/>
<path d="M0 0 C1.875 0.625 1.875 0.625 4 2 C5.25 5.125 5.25 5.125 6 8 C4.35 7.67 2.7 7.34 1 7 C0.67 4.69 0.34 2.38 0 0 Z " fill="#327CED" transform="translate(195,51)"/>
<path d="M0 0 C0.66 0 1.32 0 2 0 C2 0.99 2 1.98 2 3 C2.66 3.66 3.32 4.32 4 5 C3.01 6.485 3.01 6.485 2 8 C1.38125 7.649375 0.7625 7.29875 0.125 6.9375 C-0.926875 6.4734375 -0.926875 6.4734375 -2 6 C-2.99 6.495 -2.99 6.495 -4 7 C-2.92598892 4.08482708 -2.22189824 2.22189824 0 0 Z " fill="#387CEC" transform="translate(27,48)"/>
<path d="M0 0 C0 0.66 0 1.32 0 2 C-0.66 2 -1.32 2 -2 2 C-2.33 2.99 -2.66 3.98 -3 5 C-4.84765625 5.73046875 -4.84765625 5.73046875 -7.0625 6.1875 C-7.79597656 6.34605469 -8.52945313 6.50460938 -9.28515625 6.66796875 C-10.13400391 6.83232422 -10.13400391 6.83232422 -11 7 C-4.36842105 0 -4.36842105 0 0 0 Z " fill="#3A7AE8" transform="translate(49,31)"/>
<path d="M0 0 C1.134375 0.020625 2.26875 0.04125 3.4375 0.0625 C-0.294888 3.63261026 -4.6574989 4.17163442 -9.5625 5.0625 C-8.758125 4.423125 -7.95375 3.78375 -7.125 3.125 C-3.31467391 0.05815217 -3.31467391 0.05815217 0 0 Z " fill="#427AE7" transform="translate(171.5625,209.9375)"/>
<path d="M0 0 C0.86625 0.4640625 0.86625 0.4640625 1.75 0.9375 C3.88371067 1.9450856 5.6614904 2.68819872 8 3 C8.66 2.34 9.32 1.68 10 1 C11 4 11 4 11 7 C5.95904225 6.55520961 3.58884285 4.33845847 0 1 C0 0.67 0 0.34 0 0 Z " fill="#4683EE" transform="translate(69,139)"/>
<path d="M0 0 C0.66 0 1.32 0 2 0 C1.34 3.3 0.68 6.6 0 10 C-0.99 10.33 -1.98 10.66 -3 11 C-2.53199289 6.94393835 -2.12046792 3.53411321 0 0 Z " fill="#1D81FD" transform="translate(78,132)"/>
<path d="M0 0 C1.32 0.33 2.64 0.66 4 1 C3.525625 1.495 3.05125 1.99 2.5625 2.5 C0.37832093 5.99468651 0.34086089 8.90966936 0 13 C-2 10 -2 10 -1.7578125 7.51953125 C-1.54898438 6.62621094 -1.34015625 5.73289062 -1.125 4.8125 C-0.92132813 3.91144531 -0.71765625 3.01039062 -0.5078125 2.08203125 C-0.34023437 1.39496094 -0.17265625 0.70789063 0 0 Z " fill="#E3F6FE" transform="translate(71,96)"/>
<path d="M0 0 C1.32 0 2.64 0 4 0 C4 1.65 4 3.3 4 5 C2.02 5 0.04 5 -2 5 C-1.125 1.125 -1.125 1.125 0 0 Z " fill="#377CFF" transform="translate(142,101)"/>
<path d="M0 0 C2.97 0.495 2.97 0.495 6 1 C5.67 1.66 5.34 2.32 5 3 C3.00390625 3.59765625 3.00390625 3.59765625 0.5625 4.0625 C-2.82474047 4.7144301 -2.82474047 4.7144301 -6 6 C-6 5.01 -6 4.02 -6 3 C-4.02 3 -2.04 3 0 3 C0 2.01 0 1.02 0 0 Z " fill="#4B87F1" transform="translate(143,142)"/>
<path d="M0 0 C0.90105469 0.01804687 1.80210938 0.03609375 2.73046875 0.0546875 C3.41753906 0.07789062 4.10460937 0.10109375 4.8125 0.125 C4.8125 0.785 4.8125 1.445 4.8125 2.125 C2.875 2.6875 2.875 2.6875 0.8125 3.125 C0.4825 2.795 0.1525 2.465 -0.1875 2.125 C-2.85808851 1.98384839 -5.51182238 2.08252893 -8.1875 2.125 C-4.87379 -0.08414 -3.8428979 -0.09981553 0 0 Z " fill="#387CEF" transform="translate(65.1875,25.875)"/>
<path d="M0 0 C0 3.52032428 -0.70351351 4.4385343 -3 7 C-3.66 7 -4.32 7 -5 7 C-4.67 5.02 -4.34 3.04 -4 1 C-2.68 0.67 -1.36 0.34 0 0 Z " fill="#3F81F3" transform="translate(103,112)"/>
<path d="M0 0 C0.33 2.97 0.66 5.94 1 9 C-1.66735273 6.51047079 -3.55746343 4.36591866 -5 1 C-1.125 0 -1.125 0 0 0 Z " fill="#3D7BEC" transform="translate(27,185)"/>
<path d="M0 0 C0.33 0.66 0.66 1.32 1 2 C0.34 1.67 -0.32 1.34 -1 1 C-0.67 0.67 -0.34 0.34 0 0 Z M-3 2 C-1.68 2.66 -0.36 3.32 1 4 C0.67 4.99 0.34 5.98 0 7 C-1.65 7 -3.3 7 -5 7 C-4.34 5.35 -3.68 3.7 -3 2 Z " fill="#1B81FD" transform="translate(135,129)"/>
<path d="M0 0 C2.631724 2.45627573 4.81527263 4.55352037 6 8 C5.625 10.25 5.625 10.25 5 12 C4.71125 11.195625 4.4225 10.39125 4.125 9.5625 C3.26737432 6.8673532 3.26737432 6.8673532 1 6 C0.375 2.9375 0.375 2.9375 0 0 Z " fill="#578DF0" transform="translate(150,119)"/>
<path d="M0 0 C2 2 2 2 2.125 4.625 C2.08375 5.40875 2.0425 6.1925 2 7 C1.34 7 0.68 7 0 7 C0 7.66 0 8.32 0 9 C-1.98 9 -3.96 9 -6 9 C-5.38125 8.814375 -4.7625 8.62875 -4.125 8.4375 C-0.94397134 6.28562767 -0.80548053 3.62466237 0 0 Z " fill="#D5EFFE" transform="translate(86,89)"/>
<path d="M0 0 C1.98 0 3.96 0 6 0 C5.02433888 1.16959987 4.044375 2.33561177 3.0625 3.5 C2.51722656 4.1496875 1.97195312 4.799375 1.41015625 5.46875 C0.94480469 5.9740625 0.47945313 6.479375 0 7 C-0.33 7 -0.66 7 -1 7 C-0.67 4.69 -0.34 2.38 0 0 Z " fill="#4181F2" transform="translate(67,84)"/>
<path d="M0 0 C1.485 0.99 1.485 0.99 3 2 C3 2.66 3 3.32 3 4 C5.31 4.33 7.62 4.66 10 5 C9.34 5.66 8.68 6.32 8 7 C6.68 7 5.36 7 4 7 C4 6.34 4 5.68 4 5 C3.01 4.67 2.02 4.34 1 4 C0.3125 1.9375 0.3125 1.9375 0 0 Z " fill="#D1E9FE" transform="translate(79,160)"/>
<path d="M0 0 C0.66 0 1.32 0 2 0 C2.41176754 3.60296594 2.1535853 4.78402067 0 7.8125 C-0.66 8.534375 -1.32 9.25625 -2 10 C-2.33 8.35 -2.66 6.7 -3 5 C-2.34 5 -1.68 5 -1 5 C-0.67 3.35 -0.34 1.7 0 0 Z " fill="#3882F3" transform="translate(59,112)"/>
<path d="M0 0 C0.33 0 0.66 0 1 0 C1.33 2.97 1.66 5.94 2 9 C1.01 9 0.02 9 -1 9 C-1.09765625 2.84765625 -1.09765625 2.84765625 -1 1 C-0.67 0.67 -0.34 0.34 0 0 Z " fill="#5585EA" transform="translate(72,100)"/>
<path d="M0 0 C3 1 3 1 4 3 C4.04022391 5.3329866 4.04320247 7.66706666 4 10 C3.67 10 3.34 10 3 10 C2.71125 9.030625 2.4225 8.06125 2.125 7.0625 C1.35785318 3.89335797 1.35785318 3.89335797 -1 3 C-0.67 2.01 -0.34 1.02 0 0 Z " fill="#5089F5" transform="translate(132,80)"/>
<path d="M0 0 C0.66 0.33 1.32 0.66 2 1 C0.68 1.99 -0.64 2.98 -2 4 C-4.46800047 2.84826645 -6.04783565 1.95216435 -8 0 C-5.11541362 -1.44229319 -3.09360585 -0.64450122 0 0 Z " fill="#407FEA" transform="translate(114,68)"/>
<path d="M0 0 C1.70884005 1.62339805 3.37446717 3.29319053 5 5 C5 5.66 5 6.32 5 7 C2.525 6.01 2.525 6.01 0 5 C0 3.35 0 1.7 0 0 Z " fill="#3D7DF7" transform="translate(146,116)"/>
<path d="M0 0 C1.32 1.32 2.64 2.64 4 4 C2.68 5.32 1.36 6.64 0 8 C0 5.36 0 2.72 0 0 Z " fill="#377DF9" transform="translate(162,101)"/>
<path d="M0 0 C0.99 0.33 1.98 0.66 3 1 C3.33 2.98 3.66 4.96 4 7 C3.01 7.495 3.01 7.495 2 8 C0.74335022 5.09399739 0 3.20395416 0 0 Z " fill="#CFEAFE" transform="translate(72,109)"/>
<path d="M0 0 C1.32 0 2.64 0 4 0 C2.92598892 2.91517292 2.22189824 4.77810176 0 7 C0 4.69 0 2.38 0 0 Z " fill="#3D7BEA" transform="translate(196,185)"/>
<path d="M0 0 C2.31 1.65 4.62 3.3 7 5 C5.68 5.33 4.36 5.66 3 6 C2.01 5.34 1.02 4.68 0 4 C0 2.68 0 1.36 0 0 Z " fill="#CFEAFD" transform="translate(118,159)"/>
<path d="M0 0 C0.66 0 1.32 0 2 0 C2.66 0.99 3.32 1.98 4 3 C6.05003955 4.19232613 6.05003955 4.19232613 8 5 C6.02 5 4.04 5 2 5 C2 4.34 2 3.68 2 3 C1.01 3 0.02 3 -1 3 C-0.67 2.01 -0.34 1.02 0 0 Z " fill="#5688EF" transform="translate(76,94)"/>
</svg>
